<svg xmlns="http://www.w3.org/2000/svg" style="display: none;"><symbol id="down-arrow" viewBox="0 0 473.654 473.654"><title>down-arrow</title><circle style="fill:#6EC2CB;" cx="236.827" cy="236.827" r="236.827"/><path style="fill:#FFFFFF;" d="M331.416,180.767c-29.236,29.236-58.476,58.476-87.712,87.715 c-29.307-29.307-58.618-58.618-87.925-87.929c-25.56-25.564-65.08,14.259-39.456,39.883c35.885,35.885,71.766,71.77,107.651,107.655 c10.841,10.845,28.907,10.549,39.666-0.213c35.885-35.885,71.766-71.77,107.651-107.655 C396.859,194.66,357.036,155.14,331.416,180.767z"/></symbol><symbol id="up-arrow" viewBox="0 0 473.654 473.654"><title>up-arrow</title><circle style="fill:#6EC2CB;" cx="236.827" cy="236.827" r="236.827"/><path style="fill:#FFFFFF;" d="M366.553,238.843c-35.885-35.889-71.766-71.77-107.651-107.655 c-10.837-10.845-28.907-10.549-39.666,0.213c-35.885,35.881-71.77,71.77-107.651,107.655c-25.564,25.56,14.259,65.08,39.879,39.456 c29.236-29.236,58.476-58.476,87.712-87.712c29.311,29.307,58.614,58.618,87.925,87.929 C352.664,304.289,392.184,264.47,366.553,238.843z"/></symbol><symbol id="cogwheel" viewBox="0 0 498.4 498.4"><title>cogwheel</title><path style="fill:#0DD396;" d="M235.6,213.6l28.8-28.8l-11.2-11.2c7.2-11.2,12.8-24,15.2-36.8h16V96h-16c-2.4-12.8-8-25.6-15.2-36.8 l11.2-10.4L235.6,20l-11.2,11.2c-11.2-7.2-24-12.8-36.8-15.2V0h-40.8v16c-12.8,2.4-25.6,8-36.8,15.2L98.8,20L70,48.8L81.2,60 C74,71.2,68.4,84,66,96.8H50v40.8h16c2.4,12.8,8,25.6,15.2,36.8L70,184.8l28.8,28.8l11.2-11.2c11.2,7.2,24,12.8,36.8,15.2v16h40.8 v-16c12.8-2.4,25.6-8,36.8-15.2L235.6,213.6z M138,145.6c-16-16-16-41.6,0-57.6s41.6-16,57.6,0s16,41.6,0,57.6S154,161.6,138,145.6z "/><path style="fill:#06BA9B;" d="M253.2,173.6c7.2-11.2,12.8-24,15.2-36.8h16V96h-16c-2.4-12.8-8-25.6-15.2-36.8l11.2-10.4l-13.6-13.6 l-54.4,53.6c15.2,16,15.2,41.6-0.8,56.8c-16,16-40.8,16-56.8,0.8L85.2,200l13.6,13.6l11.2-11.2c11.2,7.2,24,12.8,36.8,15.2v16h40.8 v-16c12.8-2.4,25.6-8,36.8-15.2l11.2,11.2l28.8-28.8L253.2,173.6z"/><path style="fill:#08446D;" d="M423.6,279.2l-34.4-34.4l-13.6,13.6c-13.6-8.8-28-15.2-43.2-17.6v-19.2h-48v19.2 c-15.2,3.2-29.6,8.8-43.2,17.6l-13.6-13.6l-34.4,34.4l13.6,13.6c-8.8,13.6-15.2,28-17.6,43.2H170v48h19.2 c3.2,15.2,8.8,29.6,17.6,43.2l-13.6,13.6l34.4,34.4l13.6-13.6c13.6,8.8,28,15.2,43.2,17.6v19.2h48v-19.2 c15.2-3.2,29.6-8.8,43.2-17.6l13.6,13.6l34.4-34.4L410,427.2c8.8-13.6,15.2-28,17.6-43.2h19.2v-48h-19.2 c-3.2-15.2-8.8-29.6-17.6-43.2L423.6,279.2z M342.8,393.6c-18.4,19.2-49.6,19.2-68,0c-18.4-18.4-18.4-49.6,0-68 c19.2-18.4,49.6-18.4,68,0C361.2,344.8,361.2,375.2,342.8,393.6z"/><path style="fill:#00233F;" d="M375.6,258.4c-13.6-8.8-28-15.2-43.2-17.6v-19.2h-48v19.2c-15.2,3.2-29.6,8.8-43.2,17.6l-13.6-13.6 l-16.8,16.8l64,64c19.2-18.4,48.8-18.4,67.2,0.8c18.4,18.4,18.4,48.8,0.8,67.2l64,64l16.8-16.8L410,427.2 c8.8-13.6,15.2-28,17.6-43.2h19.2v-48h-19.2c-3.2-15.2-8.8-29.6-17.6-43.2l13.6-13.6l-34.4-34.4L375.6,258.4z"/><path style="fill:#D32A0F;" d="M448.4,155.2v-24h-9.6c-1.6-8-4.8-15.2-8.8-21.6l6.4-6.4l-16.8-16.8l-6.4,6.4 c-6.4-4-13.6-7.2-21.6-8.8v-9.6h-24V84c-8,1.6-15.2,4.8-21.6,8.8l-6.4-6.4l-18.4,16.8l6.4,6.4c-4,6.4-7.2,13.6-8.8,21.6h-9.6v24h9.6 c1.6,8,4.8,15.2,8.8,21.6l-6.4,6.4L338,200l6.4-6.4c6.4,4,13.6,7.2,21.6,8.8v9.6h24v-9.6c8-1.6,15.2-4.8,21.6-8.8l6.4,6.4l16.8-16.8 l-4.8-6.4c4-6.4,7.2-13.6,8.8-21.6H448.4z M378.8,167.2c-13.6,0-24-10.4-24-24s10.4-24,24-24s24,10.4,24,24S392.4,167.2,378.8,167.2 z"/><path style="fill:#A00D05;" d="M438.8,131.2c-1.6-8-4.8-15.2-8.8-21.6l6.4-6.4l-16.8-16.8l-6.4,6.4c-6.4-4-13.6-7.2-21.6-8.8v-9.6 h-12v44.8c12.8,0,24,11.2,24,24s-10.4,24-24,24V212h12v-9.6c8-1.6,15.2-4.8,21.6-8.8l6.4,6.4l16.8-16.8l-6.4-6.4 c4-6.4,7.2-13.6,8.8-21.6h9.6v-24H438.8z"/></symbol><symbol id="idea" viewBox="0 0 53 53"><title>idea</title><path style="fill:#EFCE4A;" d="M26.5,9c-8.837,0-16,7.164-16,16c0,7.089,4.615,13.091,11,15.192V50h2v3h6v-3h2v-9.808 c6.385-2.101,11-8.103,11-15.192C42.5,16.164,35.337,9,26.5,9z"/><g> <path style="fill:#EFCE4A;" d="M26.5,0c-0.553,0-1,0.447-1,1v4c0,0.553,0.447,1,1,1s1-0.447,1-1V1C27.5,0.447,27.053,0,26.5,0z"/> <path style="fill:#EFCE4A;" d="M50.5,24h-4c-0.553,0-1,0.447-1,1s0.447,1,1,1h4c0.553,0,1-0.447,1-1S51.053,24,50.5,24z"/> <path style="fill:#EFCE4A;" d="M6.5,24h-4c-0.553,0-1,0.447-1,1s0.447,1,1,1h4c0.553,0,1-0.447,1-1S7.053,24,6.5,24z"/> <path style="fill:#EFCE4A;" d="M42.764,7.322l-2.828,2.828c-0.391,0.391-0.391,1.023,0,1.414c0.195,0.195,0.451,0.293,0.707,0.293 s0.512-0.098,0.707-0.293l2.828-2.828c0.391-0.391,0.391-1.023,0-1.414S43.154,6.932,42.764,7.322z"/> <path style="fill:#EFCE4A;" d="M11.65,38.436l-2.828,2.828c-0.391,0.391-0.391,1.023,0,1.414c0.195,0.195,0.451,0.293,0.707,0.293 s0.512-0.098,0.707-0.293l2.828-2.828c0.391-0.391,0.391-1.023,0-1.414S12.041,38.045,11.65,38.436z"/> <path style="fill:#EFCE4A;" d="M41.35,38.436c-0.391-0.391-1.023-0.391-1.414,0s-0.391,1.023,0,1.414l2.828,2.828 c0.195,0.195,0.451,0.293,0.707,0.293s0.512-0.098,0.707-0.293c0.391-0.391,0.391-1.023,0-1.414L41.35,38.436z"/> <path style="fill:#EFCE4A;" d="M10.236,7.322c-0.391-0.391-1.023-0.391-1.414,0s-0.391,1.023,0,1.414l2.828,2.828 c0.195,0.195,0.451,0.293,0.707,0.293s0.512-0.098,0.707-0.293c0.391-0.391,0.391-1.023,0-1.414L10.236,7.322z"/> </g><path style="fill:#F7E6A1;" d="M15.5,26c-0.553,0-1-0.447-1-1c0-6.617,5.383-12,12-12c0.553,0,1,0.447,1,1s-0.447,1-1,1 c-5.514,0-10,4.486-10,10C16.5,25.553,16.053,26,15.5,26z"/><polygon style="fill:#556080;" points="21.5,43 21.5,50 23.5,50 23.5,53 29.5,53 29.5,50 31.5,50 31.5,43 "/></symbol><symbol id="gear" viewBox="0 0 512 512"><title>gear</title><path style="fill:#303C42;" d="M503.917,136.854l-21.115-5.281c-0.406-1.063-0.844-2.104-1.281-3.146l11.188-18.646 c2.521-4.198,1.854-9.573-1.604-13.031l-33.188-33.188c-3.469-3.49-8.833-4.125-13.031-1.604L426.24,73.146 c-1.042-0.448-2.094-0.875-3.146-1.281l-5.281-21.115c-1.188-4.75-5.448-8.083-10.344-8.083h-46.938 c-4.896,0-9.156,3.333-10.344,8.083l-5.281,21.115c-1.052,0.406-2.104,0.833-3.146,1.281l-18.646-11.188 c-4.198-2.5-9.573-1.865-13.031,1.604L276.896,96.75c-3.458,3.458-4.125,8.833-1.604,13.031l11.188,18.646 c-0.438,1.042-0.875,2.083-1.281,3.146l-21.115,5.281c-4.75,1.188-8.083,5.448-8.083,10.344v46.938 c0,4.896,3.333,9.156,8.083,10.344l21.115,5.281c0.406,1.063,0.833,2.104,1.281,3.146l-11.188,18.646 c-0.518,0.863-0.34,1.858-0.592,2.793c-0.086-0.092-0.068-0.234-0.158-0.324l-39.229-39.229c-3.469-3.469-8.854-4.125-13.031-1.604 l-18.385,11.042c-3.698-1.75-7.469-3.313-11.281-4.688l-5.208-20.802c-1.188-4.74-5.448-8.073-10.344-8.073h-55.458 c-4.896,0-9.156,3.333-10.344,8.073l-5.208,20.802c-3.813,1.375-7.583,2.938-11.281,4.688l-18.385-11.042 c-4.167-2.51-9.573-1.865-13.031,1.604l-39.229,39.229c-3.458,3.458-4.125,8.833-1.604,13.031l11.042,18.385 c-1.75,3.698-3.313,7.469-4.688,11.281l-20.802,5.208C3.333,283.115,0,287.375,0,292.271v55.458c0,4.896,3.333,9.156,8.073,10.344 l20.802,5.208c1.375,3.813,2.938,7.583,4.688,11.281l-11.042,18.385c-2.521,4.198-1.854,9.573,1.604,13.031l39.229,39.229 c3.458,3.448,8.854,4.094,13.031,1.604l18.385-11.042c3.698,1.75,7.469,3.313,11.281,4.688l5.208,20.802 c1.188,4.74,5.448,8.073,10.344,8.073h55.458c4.896,0,9.156-3.333,10.344-8.073l5.208-20.802c3.813-1.375,7.583-2.938,11.281-4.688 l18.385,11.042c4.188,2.5,9.583,1.844,13.031-1.604l39.229-39.229c3.458-3.458,4.125-8.833,1.604-13.031l-11.042-18.385 c1.75-3.698,3.313-7.469,4.688-11.281l20.802-5.208c4.74-1.188,8.073-5.448,8.073-10.344v-55.458c0-4.896-3.333-9.156-8.073-10.344 l-20.802-5.208c-1.375-3.813-2.938-7.583-4.688-11.281l11.042-18.385c0.518-0.863,0.34-1.858,0.592-2.793 c0.086,0.092,0.068,0.234,0.158,0.324l33.188,33.188c3.458,3.469,8.823,4.094,13.031,1.604l18.646-11.188 c1.042,0.448,2.083,0.875,3.146,1.281l5.281,21.115c1.188,4.75,5.448,8.083,10.344,8.083h46.938c4.896,0,9.156-3.333,10.344-8.083 l5.281-21.115c1.063-0.406,2.104-0.833,3.146-1.281l18.646,11.188c4.208,2.5,9.583,1.844,13.031-1.604l33.188-33.188 c3.458-3.458,4.125-8.833,1.604-13.031l-11.188-18.646c0.448-1.042,0.875-2.083,1.281-3.146l21.115-5.281 c4.75-1.188,8.083-5.448,8.083-10.344v-46.938C512,142.302,508.667,138.042,503.917,136.854z M149.333,362.667 c-23.531,0-42.667-19.135-42.667-42.667s19.135-42.667,42.667-42.667S192,296.469,192,320S172.865,362.667,149.333,362.667z M384,192c-11.76,0-21.333-9.573-21.333-21.333s9.573-21.333,21.333-21.333c11.76,0,21.333,9.573,21.333,21.333S395.76,192,384,192z "/><path style="fill:#35A0DA;" d="M472.125,150.885c-3.542-0.885-6.385-3.51-7.542-6.979c-1.302-3.917-2.823-7.677-4.646-11.313 c-1.656-3.271-1.51-7.156,0.375-10.292l9.823-16.354l-21.417-21.417l-16.354,9.813c-3.135,1.885-7,2.052-10.292,0.375 c-3.635-1.823-7.406-3.333-11.323-4.646c-3.458-1.146-6.094-3.99-6.969-7.531L399.135,64h-30.271l-4.646,18.542 c-0.875,3.542-3.51,6.385-6.969,7.531c-3.917,1.313-7.688,2.823-11.323,4.646c-3.271,1.656-7.146,1.49-10.292-0.375l-16.354-9.813 l-21.417,21.417l9.823,16.354c1.885,3.135,2.031,7.021,0.375,10.292c-1.823,3.635-3.344,7.396-4.646,11.313 c-1.156,3.469-4,6.094-7.542,6.979l-18.542,4.646v30.271l18.542,4.646c3.542,0.875,6.385,3.51,7.531,6.969 c1.302,3.906,2.813,7.677,4.656,11.302c1.656,3.271,1.51,7.167-0.375,10.313l-9.823,16.354l21.417,21.417l16.354-9.823 c3.167-1.875,7.042-2,10.313-0.375c3.625,1.844,7.396,3.354,11.302,4.656c3.458,1.146,6.094,3.99,6.969,7.531l4.646,18.542h30.271 l4.646-18.542c0.875-3.542,3.51-6.385,6.969-7.531c3.906-1.302,7.677-2.813,11.302-4.656c3.271-1.656,7.167-1.51,10.313,0.375 l16.354,9.823l21.417-21.417l-9.823-16.354c-1.885-3.146-2.031-7.042-0.375-10.313c1.844-3.625,3.354-7.396,4.656-11.302 c1.146-3.458,3.99-6.094,7.531-6.969l18.542-4.646v-30.271L472.125,150.885z M384,213.333c-23.531,0-42.667-19.135-42.667-42.667 S360.469,128,384,128s42.667,19.135,42.667,42.667S407.531,213.333,384,213.333z"/><path style="opacity:0.1;enable-background:new ;" d="M464.583,143.906c-1.302-3.917-2.823-7.677-4.646-11.313 c-1.656-3.271-1.51-7.156,0.375-10.292l9.823-16.354l-21.417-21.417l-16.354,9.813c-3.135,1.885-7,2.052-10.292,0.375 c-3.635-1.823-7.406-3.333-11.323-4.646c-3.458-1.146-6.094-3.99-6.969-7.531L399.135,64H384v64 c23.531,0,42.667,19.135,42.667,42.667S407.531,213.333,384,213.333v64h15.135l4.646-18.542c0.875-3.542,3.51-6.385,6.969-7.531 c3.906-1.302,7.677-2.813,11.302-4.656c3.271-1.656,7.167-1.51,10.313,0.375l16.354,9.823l21.417-21.417l-9.823-16.354 c-1.885-3.146-2.031-7.042-0.375-10.313c1.844-3.625,3.354-7.396,4.656-11.302c1.146-3.458,3.99-6.094,7.531-6.969l18.542-4.646 v-30.271l-18.542-4.646C468.583,150,465.74,147.375,464.583,143.906z"/><path style="fill:#1E88E5;" d="M258.938,295.99c-3.625-0.906-6.51-3.646-7.604-7.219c-1.969-6.427-4.594-12.74-7.813-18.781 c-1.76-3.302-1.656-7.292,0.271-10.5l9.771-16.271l-27.448-27.448l-16.271,9.771c-3.229,1.927-7.219,2.01-10.5,0.271 c-6.042-3.219-12.354-5.844-18.781-7.813c-3.573-1.094-6.313-3.979-7.219-7.604L168.74,192h-38.813l-4.604,18.396 c-0.906,3.625-3.646,6.51-7.219,7.604c-6.427,1.969-12.74,4.594-18.781,7.813c-3.313,1.74-7.302,1.656-10.5-0.271l-16.271-9.771 l-27.448,27.448l9.771,16.271c1.927,3.208,2.031,7.198,0.271,10.5c-3.219,6.042-5.844,12.354-7.813,18.781 c-1.094,3.573-3.979,6.313-7.604,7.219l-18.396,4.604v38.813l18.396,4.604c3.625,0.906,6.51,3.646,7.604,7.219 c1.969,6.427,4.594,12.74,7.813,18.781c1.76,3.302,1.656,7.292-0.271,10.5l-9.771,16.271l27.448,27.448l16.271-9.771 c3.198-1.938,7.188-2.031,10.5-0.271c6.042,3.219,12.354,5.844,18.781,7.813c3.573,1.094,6.313,3.979,7.219,7.604L129.927,448 h38.813l4.604-18.396c0.906-3.625,3.646-6.51,7.219-7.604c6.427-1.969,12.74-4.594,18.781-7.813c3.281-1.76,7.271-1.667,10.5,0.271 l16.271,9.771l27.448-27.448l-9.771-16.271c-1.927-3.208-2.031-7.198-0.271-10.5c3.219-6.042,5.844-12.354,7.813-18.781 c1.094-3.573,3.979-6.313,7.604-7.219l18.396-4.604v-38.813L258.938,295.99z M149.333,384c-35.292,0-64-28.708-64-64 s28.708-64,64-64s64,28.708,64,64S184.625,384,149.333,384z"/><path style="opacity:0.1;enable-background:new ;" d="M251.333,288.771c-1.969-6.427-4.594-12.74-7.813-18.781 c-1.76-3.302-1.656-7.292,0.271-10.5l9.771-16.271l-27.448-27.448l-16.271,9.771c-3.229,1.927-7.219,2.01-10.5,0.271 c-6.042-3.219-12.354-5.844-18.781-7.813c-3.573-1.094-6.313-3.979-7.219-7.604L168.74,192h-19.406v64c35.292,0,64,28.708,64,64 s-28.708,64-64,64v64h19.406l4.604-18.396c0.906-3.625,3.646-6.51,7.219-7.604c6.427-1.969,12.74-4.594,18.781-7.813 c3.281-1.76,7.271-1.667,10.5,0.271l16.271,9.771l27.448-27.448l-9.771-16.271c-1.927-3.208-2.031-7.198-0.271-10.5 c3.219-6.042,5.844-12.354,7.813-18.781c1.094-3.573,3.979-6.313,7.604-7.219l18.396-4.604v-38.813l-18.396-4.604 C255.313,295.083,252.427,292.344,251.333,288.771z"/><path style="opacity:0.1;enable-background:new ;" d="M110.548,414.444c-6.427-1.969-12.74-4.594-18.781-7.813 c-3.313-1.76-7.302-1.667-10.5,0.271l-16.271,9.771l7.556,7.556l16.271-9.771c3.198-1.938,7.188-2.031,10.5-0.271 c5.891,3.138,12.049,5.664,18.31,7.616C116.659,418.31,114.029,415.509,110.548,414.444z"/><linearGradient id="SVGID_1_" gradientUnits="userSpaceOnUse" x1="-43.9851" y1="638.9899" x2="-25.7604" y2="630.4921" gradientTransform="matrix(21.3333 0 0 -21.3333 996.3334 13791.667)"> <stop offset="0" style="stop-color:#FFFFFF;stop-opacity:0.2"/> <stop offset="1" style="stop-color:#FFFFFF;stop-opacity:0"/> </linearGradient><path style="fill:url(#SVGID_1_);" d="M503.917,136.854l-21.115-5.281c-0.406-1.063-0.844-2.104-1.281-3.146l11.188-18.646 c2.521-4.198,1.854-9.573-1.604-13.031l-33.188-33.188c-3.469-3.49-8.833-4.125-13.031-1.604L426.24,73.146 c-1.042-0.448-2.094-0.875-3.146-1.281l-5.281-21.115c-1.188-4.75-5.448-8.083-10.344-8.083h-46.938 c-4.896,0-9.156,3.333-10.344,8.083l-5.281,21.115c-1.052,0.406-2.104,0.833-3.146,1.281l-18.646-11.188 c-4.198-2.5-9.573-1.865-13.031,1.604L276.896,96.75c-3.458,3.458-4.125,8.833-1.604,13.031l11.188,18.646 c-0.438,1.042-0.875,2.083-1.281,3.146l-21.115,5.281c-4.75,1.188-8.083,5.448-8.083,10.344v46.938 c0,4.896,3.333,9.156,8.083,10.344l21.115,5.281c0.406,1.063,0.833,2.104,1.281,3.146l-11.188,18.646 c-0.518,0.863-0.34,1.858-0.592,2.793c-0.086-0.092-0.068-0.234-0.158-0.324l-39.229-39.229c-3.469-3.469-8.854-4.125-13.031-1.604 l-18.385,11.042c-3.698-1.75-7.469-3.313-11.281-4.688l-5.208-20.802c-1.188-4.74-5.448-8.073-10.344-8.073h-55.458 c-4.896,0-9.156,3.333-10.344,8.073l-5.208,20.802c-3.813,1.375-7.583,2.938-11.281,4.688l-18.385-11.042 c-4.167-2.51-9.573-1.865-13.031,1.604l-39.229,39.229c-3.458,3.458-4.125,8.833-1.604,13.031l11.042,18.385 c-1.75,3.698-3.313,7.469-4.688,11.281l-20.802,5.208C3.333,283.115,0,287.375,0,292.271v55.458c0,4.896,3.333,9.156,8.073,10.344 l20.802,5.208c1.375,3.813,2.938,7.583,4.688,11.281l-11.042,18.385c-2.521,4.198-1.854,9.573,1.604,13.031l39.229,39.229 c3.458,3.448,8.854,4.094,13.031,1.604l18.385-11.042c3.698,1.75,7.469,3.313,11.281,4.688l5.208,20.802 c1.188,4.74,5.448,8.073,10.344,8.073h55.458c4.896,0,9.156-3.333,10.344-8.073l5.208-20.802c3.813-1.375,7.583-2.938,11.281-4.688 l18.385,11.042c4.188,2.5,9.583,1.844,13.031-1.604l39.229-39.229c3.458-3.458,4.125-8.833,1.604-13.031l-11.042-18.385 c1.75-3.698,3.313-7.469,4.688-11.281l20.802-5.208c4.74-1.188,8.073-5.448,8.073-10.344v-55.458c0-4.896-3.333-9.156-8.073-10.344 l-20.802-5.208c-1.375-3.813-2.938-7.583-4.688-11.281l11.042-18.385c0.518-0.863,0.34-1.858,0.592-2.793 c0.086,0.092,0.068,0.234,0.158,0.324l33.188,33.188c3.458,3.469,8.823,4.094,13.031,1.604l18.646-11.188 c1.042,0.448,2.083,0.875,3.146,1.281l5.281,21.115c1.188,4.75,5.448,8.083,10.344,8.083h46.938c4.896,0,9.156-3.333,10.344-8.083 l5.281-21.115c1.063-0.406,2.104-0.833,3.146-1.281l18.646,11.188c4.208,2.5,9.583,1.844,13.031-1.604l33.188-33.188 c3.458-3.458,4.125-8.833,1.604-13.031l-11.188-18.646c0.448-1.042,0.875-2.083,1.281-3.146l21.115-5.281 c4.75-1.188,8.083-5.448,8.083-10.344v-46.938C512,142.302,508.667,138.042,503.917,136.854z M149.333,362.667 c-23.531,0-42.667-19.135-42.667-42.667s19.135-42.667,42.667-42.667S192,296.469,192,320S172.865,362.667,149.333,362.667z M384,192c-11.76,0-21.333-9.573-21.333-21.333s9.573-21.333,21.333-21.333c11.76,0,21.333,9.573,21.333,21.333S395.76,192,384,192z "/></symbol></svg>